<svg width="70" height="70" viewBox="0 0 70 70" fill="none" xmlns="http://www.w3.org/2000/svg">
<path d="M64.1667 35C64.1667 42.7355 61.0938 50.1541 55.624 55.6239C50.1541 61.0938 42.7355 64.1667 35 64.1667C31.1698 64.1667 27.3771 63.4123 23.8384 61.9465C20.2997 60.4807 17.0844 58.3323 14.3761 55.6239C8.90625 50.1541 5.83334 42.7355 5.83334 35C5.83334 27.2645 8.90625 19.8459 14.3761 14.3761C19.8459 8.90624 27.2645 5.83334 35 5.83334C38.8302 5.83334 42.6229 6.58775 46.1616 8.05352C49.7003 9.51928 52.9156 11.6677 55.624 14.3761C58.3323 17.0844 60.4807 20.2997 61.9465 23.8384C63.4123 27.3771 64.1667 31.1698 64.1667 35ZM44.9167 48.4167L31.5 35L44.9167 21.5833L40.8333 17.5L23.3333 35L40.8333 52.5L44.9167 48.4167Z" fill="black"/>
</svg>
